<svg xmlns="http://www.w3.org/2000/svg" version="1.1" xmlns:xlink="http://www.w3.org/1999/xlink" xmlns:svgjs="http://svgjs.dev/svgjs" width="1000" height="1000" viewBox="0 0 1000 1000"><rect width="1000" height="1000" fill="#ffffff"></rect><g transform="matrix(0.7,0,0,0.7,150.09852274814864,74.74461538461543)"><svg viewBox="0 0 203 247" data-background-color="#ffffff" preserveAspectRatio="xMidYMid meet" height="1216" width="1000" xmlns="http://www.w3.org/2000/svg" xmlns:xlink="http://www.w3.org/1999/xlink"><g id="tight-bounds" transform="matrix(1,0,0,1,-0.028571260179830915,-0.09999999999999432)"><svg viewBox="0 0 203.05714285714285 247.2" height="247.2" width="203.05714285714285"><g><svg viewBox="0 0 203.05714285714285 247.2" height="247.2" width="203.05714285714285"><g><svg viewBox="0 0 203.05714285714285 247.2" height="247.2" width="203.05714285714285"><g id="textblocktransform"><svg viewBox="0 0 203.05714285714285 247.2" height="247.2" width="203.05714285714285" id="textblock"><g><svg viewBox="0 0 203.05714285714285 247.2" height="247.2" width="203.05714285714285"><g transform="matrix(1,0,0,1,0,0)"><svg width="203.05714285714285" viewBox="3.700000047683716 -35 28.75 35" height="247.2" data-palette-color="#ee3e38"><path d="M14.45 0L3.7 0 3.7-35 14.45-35Q23.7-35 28.08-30.3 32.45-25.6 32.45-17.4L32.45-17.4Q32.45-9.35 28.08-4.67 23.7 0 14.45 0L14.45 0ZM7.9-31.5L7.9-3.5 14.35-3.5Q19.45-3.5 22.48-5.18 25.5-6.85 26.8-9.98 28.1-13.1 28.1-17.4L28.1-17.4Q28.1-21.8 26.8-24.95 25.5-28.1 22.48-29.8 19.45-31.5 14.35-31.5L14.35-31.5 7.9-31.5Z" opacity="1" transform="matrix(1,0,0,1,0,0)" fill="#ee3e38" class="wordmark-text-0" data-fill-palette-color="primary" id="text-0"></path></svg></g></svg></g></svg></g></svg></g><g></g></svg></g><defs></defs></svg><rect width="203.05714285714285" height="247.2" fill="none" stroke="none" visibility="hidden"></rect></g></svg></g></svg>